<svg id="Camada_1" data-name="Camada 1" xmlns="http://www.w3.org/2000/svg" viewBox="0 0 134.64 48.18"><defs><style>.cls-1{fill:none;stroke:#fdfcfd;stroke-miterlimit:10;stroke-width:0.25px;}</style></defs><path class="cls-1" d="M68,29c-2.57,6-6.26,14.23-11,24C48.92,69.68,44.56,76.74,45,77s3-2.83,4-7c.35-1.49,1.32-5.61-1-9-3.15-4.59-9.8-4.09-11-4-5.52.42-10.36,3.94-10,5,.19.55,2.13.37,6,0a65.75,65.75,0,0,0,7-1c10.9-2.38,49.45-9.63,57-11a341.34,341.34,0,0,1,35.5-4.5" transform="translate(-26.86 -28.95)"/><path class="cls-1" d="M78.5,38.5C75.82,43,73.57,46.54,72,49c-4,6.28-6.28,9.49-9,15-1.13,2.29-2,4.22-2.5,5.5" transform="translate(-26.86 -28.95)"/><path class="cls-1" d="M76,54a10.14,10.14,0,0,0,3-2c.68-.67,1.82-1.77,1.5-2.5A1.24,1.24,0,0,0,79,49c-1,.51-1,3.46,0,4,.26.14.72.21,3.5-1.5C84.93,50,86.67,48.67,87,49a4,4,0,0,1,0,1h0a27.43,27.43,0,0,1-1.5,2.5A6.79,6.79,0,0,1,87,50c1.79-1.92,4.67-2.54,5-2s-1.82,2-1.5,2.5,2.75,0,4.5-1.5c1-.86,1-1.37,2-2,1.3-.8,3.11-1.09,3.5-.5.54.82-1.94,3-1.5,3.5s2-.48,3-1a16.32,16.32,0,0,0,3-2,11.81,11.81,0,0,0,2-2c-.09-.1-2.12,1-2,2s2.14,1.42,2.5,1.5c2.26.52,4.22-.25,6-1s3-1.25,3-2c0-1.17-2.5-2.86-4-2a2.14,2.14,0,0,0-1,2,2.28,2.28,0,0,0,2,2c.92,0,1.73-.75,2.5-1.5.35-.34.46-.52.5-.5s-1,2.51-6,12" transform="translate(-26.86 -28.95)"/><path class="cls-1" d="M116,47a10.82,10.82,0,0,0,6-3c.51-.53,1.37-1.59,1.5-1.5s-1.56,2.25-1,3c.32.43,1.33.26,2,0,2-.78,2.65-3.13,3-3s-.68,2,0,3c1.15,1.64,6.55-.11,10-2,2-1.11,4.62-2.58,5.5-5.5.25-.84.67-2.21,0-3-1.83-2.18-11,1.07-11,4,0,1.38,2,2.46,3,3,2.19,1.17,4.34,1.24,9,1,5.21-.27,7.48-.61,7.5-.5.07.35-22.94,6.08-53,10-17.63,2.3-40.81,4.32-41,3s25.61-6.92,51-10a414.09,414.09,0,0,1,53-3" transform="translate(-26.86 -28.95)"/><path class="cls-1" d="M117,46" transform="translate(-26.86 -28.95)"/></svg>